<svg width="96" height="96" xmlns="http://www.w3.org/2000/svg" xmlns:xlink="http://www.w3.org/1999/xlink" overflow="hidden"><defs><clipPath id="clip0"><rect x="0" y="0" width="96" height="96"/></clipPath><clipPath id="clip1"><rect x="15" y="14" width="66" height="72"/></clipPath><clipPath id="clip2"><rect x="15" y="14" width="66" height="72"/></clipPath></defs><g clip-path="url(#clip0)"><path d="M0 0 96 0 96 96 0 96Z" fill="#FFFFFF" fill-rule="evenodd"/><path d="M0 16.0003C-6.11104e-15 7.16358 7.16358 0 16.0003 0L79.9997 0C88.8364-3.05552e-15 96 7.16358 96 16.0003L96 79.9997C96 88.8364 88.8364 96 79.9997 96L16.0003 96C7.16358 96 0 88.8364 0 79.9997Z" fill="#231F20" fill-rule="evenodd"/><g clip-path="url(#clip1)"><g clip-path="url(#clip2)"><g><path d="M44.7194 67.9735C42.0362 64.8431 25.0429 45.1666 42.4834 28.1732 56.7936 13.4158 58.5824 5.81352 53.6633 0 53.6633 0 90.7803 10.7327 69.315 45.6138 65.7375 51.4273 57.688 56.7936 62.6071 71.551L44.7194 67.9735Z" fill="#F2F2F2" transform="matrix(1.01084 0 0 1 -17.9986 13.9987)"/><path d="M71.551 71.551C71.551 66.1847 71.9982 57.688 79.1533 50.5329 84.9668 43.825 87.2028 33.5395 87.65 29.962 87.65 29.962 106.879 40.6946 87.65 67.5263L71.551 71.551Z" fill="#F2F2F2" transform="matrix(1.01084 0 0 1 -17.9986 13.9987)"/><path d="M0 93.9107 13.4158 93.9107 13.4158 116.27 17.8878 120.742 116.27 120.742 120.742 116.27 120.742 93.9107 134.158 93.9107 134.158 125.214 125.214 134.158 8.94388 134.158 0 125.214Z" fill="#F2F2F2" transform="matrix(1.01084 0 0 1 -17.9986 13.9987)"/><path d="M26.8316 71.551 107.327 98.3827 107.327 116.27 26.8316 89.4388Z" fill="#F2F2F2" transform="matrix(1.01084 0 0 1 -17.9986 13.9987)"/><path d="M80.4949 80.4949 107.327 89.4388 107.327 71.551Z" fill="#F2F2F2" transform="matrix(1.01084 0 0 1 -17.9986 13.9987)"/><path d="M26.8316 116.27 52.3217 107.327 26.8316 98.3827Z" fill="#F2F2F2" transform="matrix(1.01084 0 0 1 -17.9986 13.9987)"/></g></g></g></g></svg>