<svg width="96" height="96" xmlns="http://www.w3.org/2000/svg" xmlns:xlink="http://www.w3.org/1999/xlink" overflow="hidden"><defs><clipPath id="clip0"><rect x="0" y="0" width="96" height="96"/></clipPath><clipPath id="clip1"><rect x="14" y="12" width="68" height="72"/></clipPath><clipPath id="clip2"><rect x="13" y="12" width="69" height="72"/></clipPath></defs><g clip-path="url(#clip0)"><path d="M0 0 96 0 96 96 0 96Z" fill="#FFFFFF" fill-rule="evenodd"/><g clip-path="url(#clip1)"><g clip-path="url(#clip2)"><g><path d="M48 72.96C45.12 69.6 26.88 48.48 45.6 30.24 60.96 14.4 62.88 6.24 57.6 0 57.6 0 97.44 11.52 74.4 48.96 70.56 55.2 61.92 60.96 67.2 76.8L48 72.96Z" transform="matrix(1.0119 0 0 1 -22.9135 12)"/><path d="M76.8 76.8C76.8 71.04 77.28 61.92 84.96 54.24 91.2 47.04 93.6 36 94.08 32.16 94.08 32.16 114.72 43.68 94.08 72.48L76.8 76.8Z" transform="matrix(1.0119 0 0 1 -22.9135 12)"/><path d="M0 100.8 14.4 100.8 14.4 124.8 19.2 129.6 124.8 129.6 129.6 124.8 129.6 100.8 144 100.8 144 134.4 134.4 144 9.6 144 0 134.4Z" transform="matrix(1.0119 0 0 1 -22.9135 12)"/><path d="M28.8 76.8 115.2 105.6 115.2 124.8 28.8 96Z" transform="matrix(1.0119 0 0 1 -22.9135 12)"/><path d="M86.4 86.4 115.2 96 115.2 76.8Z" transform="matrix(1.0119 0 0 1 -22.9135 12)"/><path d="M28.8 124.8 56.16 115.2 28.8 105.6Z" transform="matrix(1.0119 0 0 1 -22.9135 12)"/></g></g></g></g></svg>