<svg width="1536" height="1536" xmlns="http://www.w3.org/2000/svg" xmlns:xlink="http://www.w3.org/1999/xlink" overflow="hidden"><g><rect x="0" y="0" width="1536" height="1536"/><g><g><g><path d="M1288 850 1288 278 1106 278 1106 239C1120.36 239 1132 227.36 1132 213 1132 198.641 1120.36 187 1106 187L1054 187C1039.64 187 1028 198.641 1028 213 1028 227.36 1039.64 239 1054 239L1054 278 794 278 794 239C808.36 239 820 227.36 820 213 820 198.641 808.36 187 794 187L742 187C727.64 187 716 198.641 716 213 716 227.36 727.64 239 742 239L742 278 482 278 482 239C496.36 239 508 227.36 508 213 508 198.641 496.36 187 482 187L430 187C415.64 187 404 198.641 404 213 404 227.36 415.64 239 430 239L430 278 248 278 248 850 280.5 850 280.5 902 274 902C259.641 902 248 913.64 248 928 248 942.36 259.641 954 274 954L417 954 417 1227 495 1227 495 954 1041 954 1041 1227 1119 1227 1119 954 1262 954C1276.36 954 1288 942.36 1288 928 1288 913.64 1276.36 902 1262 902L1255.5 902 1255.5 850ZM904.5 850 904.5 902 847.56 902 899.56 850ZM943.5 902 943.5 850 1000.44 850 948.44 902ZM792.44 902 787.5 902 787.5 850 844.44 850ZM748.5 850 748.5 902 691.56 902 743.56 850ZM636.44 902 631.5 902 631.5 850 688.44 850ZM592.5 850 592.5 902 535.56 902 587.56 850ZM480.44 902 475.5 902 475.5 850 532.44 850ZM436.5 850 436.5 902 379.56 902 431.56 850ZM1055.56 850 1060.5 850 1060.5 902 1003.56 902ZM1099.5 902 1099.5 850 1156.44 850 1104.44 902ZM300 330 1236 330 1236 798 300 798ZM319.5 850 376.44 850 324.44 902 319.5 902ZM1216.5 902 1159.56 902 1211.56 850 1216.5 850Z" fill="#FFFFFF"/></g></g></g><path d="M63.0176 88.2311C48.6216 88.2311 36.6249 76.2347 37.2247 61.2391 37.2247 46.8433 49.2214 34.8469 63.6174 34.8469 78.0134 34.8469 90.0101 46.8433 90.0101 61.2391 90.0101 68.4369 87.0109 75.0349 82.2123 79.8335 76.8138 85.232 70.2156 88.2311 63.0176 88.2311ZM37.2247 4.85587C24.0284 9.65444 13.8312 19.8514 7.23306 31.8478-1.16461 48.043-2.36428 66.6374 4.23389 83.4324L33.0259 145.814 52.2206 185.402C54.0201 189.601 58.2189 192 63.0176 192 67.8162 192 72.0151 189.601 73.8146 185.402L93.0093 145.814 121.801 84.0322C124.8 76.8344 126 69.0367 126 61.2391 126 19.2516 82.8121-12.5389 37.2247 4.85587Z" fill="#FF0000" fill-rule="evenodd" transform="matrix(-1 0 0 1 711 378)"/><path d="M228 289.8 132 241.8 132 46.2 228 94.2 228 289.8ZM108 241.8 36 277.8 36 82.2 108 46.2 108 241.8ZM440.4 40.2 440.4 40.2 425.4 72.6 444 82.2 444 277.8 372 241.8 372 162 348 162 348 241.8 252 289.8 252 94.2 294.6 72.6 279.6 40.2 240 60 120 0 0 60 0 336 120 276 240 336 360 276 480 336 480 60 440.4 40.2Z" fill="#FFFFFF" fill-rule="evenodd" transform="matrix(-1 0 0 1 1008 432)"/></g></svg>