<svg width="1536" height="1536" xmlns="http://www.w3.org/2000/svg" xmlns:xlink="http://www.w3.org/1999/xlink" overflow="hidden"><g><rect x="0" y="0" width="1536" height="1536"/><path d="M0 0 1536 0 1536 1536 0 1536Z" fill-rule="evenodd"/><path d="M196.024 98.0189C196.024 152.143 152.147 196.019 98.0236 196.019 43.8996 196.019 0.023622 152.143 0.023622 98.0189 0.023622 43.8949 43.8996 0.0188976 98.0236 0.0188976 152.147 0.0188976 196.024 43.8949 196.024 98.0189Z" fill="#FFFFFF" fill-rule="evenodd" transform="matrix(-1 1.22465e-16 1.22465e-16 1 798 241)"/><path d="M789.399 25.9654C774.847 3.13044 744.531-3.58882 721.687 10.9562 721.657 10.9762 721.627 10.9942 721.598 11.0142L614.317 79.5243 478.346 5.98882C466.745-0.326247 453.085-1.69594 440.46 2.18898L281.072 51.2127C269.382 54.8014 259.457 62.6262 253.239 73.1512L179.675 199.265 59.5219 168.012C33.0589 162.239 6.92413 179.003 1.15008 205.456-4.31662 230.497 10.4362 255.521 35.0005 262.873L191.078 303.439C195.077 304.509 199.199 305.044 203.339 305.033 220.798 304.972 236.909 295.637 245.639 280.521L301.915 183.454 309.64 323.662 211.553 565.227C207.041 576.73 207.041 589.511 211.553 601.013L287.202 801.153C294.257 820.032 312.158 832.678 332.321 833.018 338.232 833.048 344.096 831.968 349.608 829.827 374.918 820.272 387.701 792.029 378.176 766.716L309.393 584.468 388.965 388.986 404.046 573.561C404.759 582.389 407.853 590.859 412.996 598.073L535.603 769.658C551.38 791.688 582.037 796.761 604.079 780.993 626.12 765.226 631.197 734.571 615.419 712.542L500.661 551.99 480.307 302.46 470.009 112.615 592.616 179.533C608.317 188.101 627.44 187.443 642.516 177.817L774.196 93.6181C797.081 79.1382 803.891 48.8535 789.405 25.9755 789.404 25.9735 789.401 25.9695 789.399 25.9654Z" fill="#FFFFFF" fill-rule="evenodd" transform="matrix(-1 1.22465e-16 1.22465e-16 1 1055 462)"/><path d="M1164.51 325.526C1152.52 325.526 1142.52 315.529 1143.02 303.033 1143.02 291.036 1153.02 281.039 1165.01 281.039 1177.01 281.039 1187.01 291.036 1187.01 303.033 1187.01 309.031 1184.51 314.529 1180.51 318.528 1176.01 323.027 1170.51 325.526 1164.51 325.526ZM1143.02 256.047C1132.02 260.045 1123.53 268.543 1118.03 278.54 1111.03 292.036 1110.03 307.531 1115.53 321.527L1139.52 373.512 1155.52 406.502C1157.02 410.001 1160.52 412 1164.51 412 1168.51 412 1172.01 410.001 1173.51 406.502L1189.51 373.512 1213.5 322.027C1216 316.029 1217 309.531 1217 303.033 1217 268.043 1181.01 241.551 1143.02 256.047Z" fill="#FF0000" fill-rule="evenodd"/><path d="M1055 538.5 975 498.5 975 335.5 1055 375.5 1055 538.5ZM955 498.5 895 528.5 895 365.5 955 335.5 955 498.5ZM1232 330.5 1232 330.5 1219.5 357.5 1235 365.5 1235 528.5 1175 498.5 1175 432 1155 432 1155 498.5 1075 538.5 1075 375.5 1110.5 357.5 1098 330.5 1065 347 965 297 865 347 865 577 965 527 1065 577 1165 527 1265 577 1265 347 1232 330.5Z" fill="#FFFFFF" fill-rule="evenodd"/><path d="M149.926 522.373C155.918 528.365 155.918 537.651 149.926 543.643L124.463 552.03 119.97 547.537 128.357 522.074C134.648 516.382 143.935 516.382 149.926 522.373ZM267.656 366 117.873 516.082 99 573 156.217 554.127 306 404.344" fill="#FFFFFF" fill-rule="evenodd"/><path d="M335.435 357.622 314.122 336.56C309.319 331.813 301.815 331.813 297.012 336.56L276 357.325 314.122 395 335.134 374.234C340.237 369.785 340.237 362.368 335.435 357.622Z" fill="#FFFFFF" fill-rule="evenodd"/></g></svg>