<svg width="1536" height="1536" xmlns="http://www.w3.org/2000/svg" xmlns:xlink="http://www.w3.org/1999/xlink" overflow="hidden"><g><rect x="0" y="0" width="1536" height="1536"/><path d="M128 64C128 99.3462 99.3462 128 64 128 28.6538 128 0 99.3462 0 64 0 28.6538 28.6538 0 64 0 99.3462 0 128 28.6538 128 64Z" fill="#FFFFFF" fill-rule="evenodd" transform="matrix(-1 0 0 1 494 457)"/><path d="M515.031 16.9137C505.537 2.02843 485.757-2.35208 470.853 7.12943 470.833 7.14222 470.813 7.15428 470.794 7.16707L400.799 51.8265 312.086 3.89152C304.517-0.225311 295.604-1.11775 287.367 1.41477L183.375 33.3714C175.748 35.7107 169.273 40.811 165.216 47.6721L117.22 129.881 38.8252 109.508C21.56 105.745 4.50855 116.673 0.741049 133.917-2.82583 150.24 6.79951 166.552 22.8264 171.344L124.659 197.788C127.268 198.485 129.958 198.834 132.659 198.827 144.05 198.787 154.561 192.702 160.257 182.849L196.974 119.575 202.014 210.97 138.018 368.437C135.074 375.935 135.074 384.266 138.018 391.765L187.375 522.228C191.978 534.538 203.657 542.779 216.812 543 220.669 543.017 224.495 542.313 228.092 540.923 244.605 534.691 252.945 516.28 246.73 499.778L201.854 380.98 253.77 253.553 263.609 373.869C264.075 379.625 266.093 385.146 269.449 389.848L349.443 501.696C359.737 516.058 379.739 519.366 394.12 509.086 408.5 498.805 411.813 478.828 401.519 464.466L326.645 359.808 313.366 197.149 306.646 73.3972 386.64 117.018C396.885 122.603 409.362 122.175 419.198 115.899L505.112 61.014C520.044 51.5747 524.486 31.8335 515.035 16.9202 515.034 16.9186 515.033 16.9161 515.031 16.9137Z" fill="#FFFFFF" fill-rule="evenodd" transform="matrix(-1 0 0 1 661 602)"/><path d="M1143 521C1143 556.346 1114.35 585 1079 585 1043.65 585 1015 556.346 1015 521 1015 485.654 1043.65 457 1079 457 1114.35 457 1143 485.654 1143 521Z" fill="#FFFFFF" fill-rule="evenodd"/><path d="M1362.03 618.914C1352.54 604.028 1332.76 599.648 1317.85 609.129 1317.83 609.142 1317.81 609.154 1317.79 609.167L1247.8 653.826 1159.09 605.892C1151.52 601.775 1142.6 600.882 1134.37 603.415L1030.37 635.371C1022.75 637.711 1016.27 642.811 1012.22 649.672L964.22 731.88 885.825 711.508C868.56 707.745 851.509 718.673 847.741 735.917 844.174 752.24 853.799 768.552 869.826 773.344L971.659 799.788C974.268 800.485 976.958 800.834 979.659 800.827 991.05 800.787 1001.56 794.702 1007.26 784.849L1043.97 721.575 1049.01 812.97 985.018 970.437C982.074 977.935 982.074 986.266 985.018 993.765L1034.37 1124.23C1038.98 1136.54 1050.66 1144.78 1063.81 1145 1067.67 1145.02 1071.5 1144.31 1075.09 1142.92 1091.6 1136.69 1099.95 1118.28 1093.73 1101.78L1048.85 982.98 1100.77 855.553 1110.61 975.869C1111.07 981.625 1113.09 987.146 1116.45 991.848L1196.44 1103.7C1206.74 1118.06 1226.74 1121.37 1241.12 1111.09 1255.5 1100.81 1258.81 1080.83 1248.52 1066.47L1173.64 961.808 1160.37 799.149 1153.65 675.397 1233.64 719.018C1243.89 724.603 1256.36 724.175 1266.2 717.899L1352.11 663.014C1367.04 653.575 1371.49 633.834 1362.04 618.92 1362.03 618.919 1362.03 618.916 1362.03 618.914Z" fill="#FFFFFF" fill-rule="evenodd"/><path d="M52.5146 73.5259C40.518 73.5259 30.5208 63.5289 31.0206 51.0325 31.0206 39.0361 41.0178 29.0391 53.0144 29.0391 65.0111 29.0391 75.0083 39.0361 75.0083 51.0325 75.0083 57.0307 72.5091 62.5292 68.5102 66.528 64.0114 71.0266 58.513 73.5259 52.5146 73.5259ZM31.0206 4.04656C20.0236 8.04537 11.526 16.5429 6.02751 26.5399-0.970544 40.0358-1.97027 55.5312 3.52826 69.5271L27.5216 121.512 43.5171 154.502C45.0167 158.001 48.5158 160 52.5146 160 56.5135 160 60.0125 158.001 61.5121 154.502L77.5077 121.512 101.501 70.0269C104 64.0287 105 57.5306 105 51.0325 105 16.043 69.01-10.4491 31.0206 4.04656Z" fill="#FF0000" fill-rule="evenodd" transform="matrix(-1 0 0 1 721 316)"/><path d="M190 241.5 110 201.5 110 38.5 190 78.5001 190 241.5ZM90 201.5 30 231.5 30 68.5001 90 38.5 90 201.5ZM367 33.5 367 33.5 354.5 60.4999 370 68.5001 370 231.5 310 201.5 310 135 290 135 290 201.5 210 241.5 210 78.5001 245.5 60.4999 233 33.5 200 50 100 0 0 50 0 280 100 230 200 280 300 230 400 280 400 50 367 33.5Z" fill="#FFFFFF" fill-rule="evenodd" transform="matrix(-1 0 0 1 968 361)"/></g></svg>