<svg width="1536" height="1536" xmlns="http://www.w3.org/2000/svg" xmlns:xlink="http://www.w3.org/1999/xlink" overflow="hidden"><defs><clipPath id="clip0"><rect x="0" y="0" width="1536" height="1536"/></clipPath><clipPath id="clip1"><rect x="-23" y="630" width="1152" height="621"/></clipPath><clipPath id="clip2"><rect x="-23" y="630" width="1152" height="621"/></clipPath></defs><g clip-path="url(#clip0)"><rect x="0" y="0" width="1536" height="1536"/><path d="M498.224 257.5 554.776 257.5C578.924 257.5 598.5 276.532 598.5 300.01L598.5 304.723 601.963 305.686C686.611 334.038 751.379 409.137 769.088 502.06L770.705 513.5 773.357 513.5C796.08 513.5 814.5 531.409 814.5 553.5 814.5 575.591 796.08 593.5 773.357 593.5L279.643 593.5C256.92 593.5 238.5 575.591 238.5 553.5 238.5 531.409 256.92 513.5 279.643 513.5L283.42 513.5 285.66 498.894C302.778 414.52 358.718 345.435 432.704 313.171L454.5 304.965 454.5 300.01C454.5 276.532 474.076 257.5 498.224 257.5Z" stroke="#000000" stroke-width="33.3333" stroke-miterlimit="8" fill="#FFFFFF" fill-rule="evenodd"/><path d="M0 0 0.000104987 120" stroke="#000000" stroke-width="33.3333" stroke-linecap="round" stroke-miterlimit="8" fill="#FFFFFF" fill-rule="evenodd" transform="matrix(1 0 0 -1 453.5 431.5)"/><path d="M0 0 0.000104987 120" stroke="#000000" stroke-width="33.3333" stroke-linecap="round" stroke-miterlimit="8" fill="#FFFFFF" fill-rule="evenodd" transform="matrix(1 0 0 -1 597.5 431.5)"/><g clip-path="url(#clip1)"><g clip-path="url(#clip2)"><g><path d="M1472.88 289.315C1472.88 405.522 1378.67 499.726 1262.47 499.726 1146.26 499.726 1052.05 405.522 1052.05 289.315 1052.05 173.108 1146.26 78.9041 1262.47 78.9041 1378.67 78.9041 1472.88 173.108 1472.88 289.315Z" fill="#FFFFFF" transform="matrix(1 0 0 1.00072 -730.789 439.736)"/><path d="M1835.84 1372.93 1688.55 746.959C1683.29 725.918 1672.77 704.877 1656.99 689.096 1593.86 636.493 1520.22 599.671 1436.05 573.37 1378.19 562.849 1320.33 552.329 1262.47 552.329 1204.6 552.329 1146.74 562.849 1088.88 578.63 1004.71 599.671 931.069 641.753 867.945 694.356 852.164 710.137 841.644 731.178 836.384 752.219L689.096 1378.19C689.096 1383.45 683.836 1393.97 683.836 1404.49 683.836 1462.36 731.178 1509.7 789.041 1509.7 836.384 1509.7 878.466 1472.88 888.986 1430.79L999.452 973.151 999.452 2446.03 1209.86 2446.03 1209.86 1499.18 1315.07 1499.18 1315.07 2446.03 1525.48 2446.03 1525.48 967.89 1635.95 1425.53C1646.47 1467.62 1688.55 1504.44 1735.89 1504.44 1793.75 1504.44 1841.1 1457.1 1841.1 1399.23 1841.1 1388.71 1835.84 1378.19 1835.84 1372.93Z" fill="#FFFFFF" transform="matrix(1 0 0 1.00072 -730.789 439.736)"/></g></g></g><path d="M75.0209 105.693C57.8827 105.693 43.601 91.3227 44.3151 73.3594 44.3151 56.1145 58.5969 41.7437 75.735 41.7437 92.8731 41.7437 107.155 56.1145 107.155 73.3594 107.155 81.9817 103.584 89.8857 97.8717 95.6339 91.4449 102.101 83.5898 105.693 75.0209 105.693ZM44.3151 5.81696C28.6052 11.5653 16.4657 23.7804 8.61081 38.1511-1.38643 57.5515-2.81466 79.8261 5.04032 99.9452L39.3165 174.673 62.1672 222.096C64.3096 227.126 69.3081 230 75.0209 230 80.7336 230 85.7322 227.126 87.8745 222.096L110.725 174.673 145.001 100.664C148.572 92.0412 150 82.7003 150 73.3594 150 23.0618 98.5858-15.0205 44.3151 5.81696Z" fill="#FF0000" fill-rule="evenodd" transform="matrix(-1 0 0 1 1075 512)"/><path d="M271.7 345.863 157.3 288.577 157.3 55.1375 271.7 112.423 271.7 345.863ZM128.7 288.577 42.9 331.541 42.9 98.1018 128.7 55.1375 128.7 288.577ZM524.81 47.9768 524.81 47.9768 506.935 86.6446 529.1 98.1018 529.1 331.541 443.3 288.577 443.3 193.339 414.7 193.339 414.7 288.577 300.3 345.863 300.3 112.423 351.065 86.6446 333.19 47.9768 286 71.6072 143 0 0 71.6072 0 401 143 329.393 286 401 429 329.393 572 401 572 71.6072 524.81 47.9768Z" fill="#FFFFFF" fill-rule="evenodd" transform="matrix(-1 0 0 1 1429 577)"/></g></svg>