<svg width="1536" height="1536" xmlns="http://www.w3.org/2000/svg" xmlns:xlink="http://www.w3.org/1999/xlink" overflow="hidden"><g><rect x="0" y="0" width="1536" height="1536" fill="#B19636"/><path d="M0 0 1536 0 1536 1536 0 1536Z" fill="#717B54" fill-rule="evenodd"/><path d="M196.024 98.0189C196.024 152.143 152.147 196.019 98.0236 196.019 43.8996 196.019 0.023622 152.143 0.023622 98.0189 0.023622 43.8949 43.8996 0.0188976 98.0236 0.0188976 152.147 0.0188976 196.024 43.8949 196.024 98.0189Z" fill="#F1EDE8" fill-rule="evenodd" transform="matrix(-1 1.22465e-16 1.22465e-16 1 798 241)"/><path d="M789.399 25.9654C774.847 3.13044 744.531-3.58882 721.687 10.9562 721.657 10.9762 721.627 10.9942 721.598 11.0142L614.317 79.5243 478.346 5.98882C466.745-0.326247 453.085-1.69594 440.46 2.18898L281.072 51.2127C269.382 54.8014 259.457 62.6262 253.239 73.1512L179.675 199.265 59.5219 168.012C33.0589 162.239 6.92413 179.003 1.15008 205.456-4.31662 230.497 10.4362 255.521 35.0005 262.873L191.078 303.439C195.077 304.509 199.199 305.044 203.339 305.033 220.798 304.972 236.909 295.637 245.639 280.521L301.915 183.454 309.64 323.662 211.553 565.227C207.041 576.73 207.041 589.511 211.553 601.013L287.202 801.153C294.257 820.032 312.158 832.678 332.321 833.018 338.232 833.048 344.096 831.968 349.608 829.827 374.918 820.272 387.701 792.029 378.176 766.716L309.393 584.468 388.965 388.986 404.046 573.561C404.759 582.389 407.853 590.859 412.996 598.073L535.603 769.658C551.38 791.688 582.037 796.761 604.079 780.993 626.12 765.226 631.197 734.571 615.419 712.542L500.661 551.99 480.307 302.46 470.009 112.615 592.616 179.533C608.317 188.101 627.44 187.443 642.516 177.817L774.196 93.6181C797.081 79.1382 803.891 48.8535 789.405 25.9755 789.404 25.9735 789.401 25.9695 789.399 25.9654Z" fill="#F1EDE8" fill-rule="evenodd" transform="matrix(-1 1.22465e-16 1.22465e-16 1 1055 462)"/><path d="M149.926 522.373C155.918 528.365 155.918 537.651 149.926 543.643L124.463 552.03 119.97 547.537 128.357 522.074C134.648 516.382 143.935 516.382 149.926 522.373ZM267.656 366 117.873 516.082 99 573 156.217 554.127 306 404.344" fill="#F1EDE8" fill-rule="evenodd"/><path d="M335.435 357.622 314.122 336.56C309.319 331.813 301.815 331.813 297.012 336.56L276 357.325 314.122 395 335.134 374.234C340.237 369.785 340.237 362.368 335.435 357.622Z" fill="#F1EDE8" fill-rule="evenodd"/><path d="M190 241.5 110 201.5 110 38.5 190 78.5001 190 241.5ZM90 201.5 30 231.5 30 68.5001 90 38.5 90 201.5ZM400 50 298 3.25008 308.5 39.9999 370 68.5001 370 231.5 310 201.5C312.333 154.667 308.417 102.584 308.5 36.5 264.833 42.1668 295.167 37.3333 288.5 37.75L290 201.5 210 241.5 210 78.5001 289.5 38.25C310.083 39.1667 308.667 41.5832 298 3.75003L200 50 100 0 0 50 0 280 100 230 200 280 300 230 400 280 400 50Z" fill="#F1EDE8" fill-rule="evenodd" transform="matrix(-1 0 0 1 1365 317)"/></g></svg>