<svg width="1536" height="1536" xmlns="http://www.w3.org/2000/svg" xmlns:xlink="http://www.w3.org/1999/xlink" overflow="hidden"><g><rect x="0" y="0" width="1536" height="1536" fill="#83152C"/><g><g><g><path d="M1288 850 1288 278 1106 278 1106 239C1120.36 239 1132 227.36 1132 213 1132 198.641 1120.36 187 1106 187L1054 187C1039.64 187 1028 198.641 1028 213 1028 227.36 1039.64 239 1054 239L1054 278 794 278 794 239C808.36 239 820 227.36 820 213 820 198.641 808.36 187 794 187L742 187C727.64 187 716 198.641 716 213 716 227.36 727.64 239 742 239L742 278 482 278 482 239C496.36 239 508 227.36 508 213 508 198.641 496.36 187 482 187L430 187C415.64 187 404 198.641 404 213 404 227.36 415.64 239 430 239L430 278 248 278 248 850 280.5 850 280.5 902 274 902C259.641 902 248 913.64 248 928 248 942.36 259.641 954 274 954L417 954 417 1227 495 1227 495 954 1041 954 1041 1227 1119 1227 1119 954 1262 954C1276.36 954 1288 942.36 1288 928 1288 913.64 1276.36 902 1262 902L1255.5 902 1255.5 850ZM904.5 850 904.5 902 847.56 902 899.56 850ZM943.5 902 943.5 850 1000.44 850 948.44 902ZM792.44 902 787.5 902 787.5 850 844.44 850ZM748.5 850 748.5 902 691.56 902 743.56 850ZM636.44 902 631.5 902 631.5 850 688.44 850ZM592.5 850 592.5 902 535.56 902 587.56 850ZM480.44 902 475.5 902 475.5 850 532.44 850ZM436.5 850 436.5 902 379.56 902 431.56 850ZM1055.56 850 1060.5 850 1060.5 902 1003.56 902ZM1099.5 902 1099.5 850 1156.44 850 1104.44 902ZM300 330 1236 330 1236 798 300 798ZM319.5 850 376.44 850 324.44 902 319.5 902ZM1216.5 902 1159.56 902 1211.56 850 1216.5 850Z" fill="#F1EDE8"/></g></g></g><path d="M239.4 304.463 138.6 254.034 138.6 48.5376 239.4 98.9661 239.4 304.463ZM113.4 254.034 37.8 291.855 37.8 86.359 113.4 48.5376 113.4 254.034ZM504 63.0357 375.48 4.09742C373.198 15.6247 395.601 54.6456 390.967 51.2022 391.739 51.4562 441.122 74.6401 466.2 86.359L466.2 291.855 390.6 254.034C393.54 194.99 391.035 53.4168 390.62 50.1852 391.329 51.7706 371.91 47.0667 363.51 47.592L365.4 254.034 264.6 304.463 264.6 98.9661 364.77 48.2223C390.705 49.378 389.614 51.3822 376.174 3.68539 375.408 4.36068 293.391 43.2522 252 63.0357L126 0 0 63.0357 0 353 126 289.964 252 353 378 289.964 504 353 504 63.0357Z" fill="#F1EDE8" fill-rule="evenodd" transform="matrix(-1 0 0 1 1020 378)"/><path d="M614 430 644 382 674 430Z" fill="#F1EDE8" fill-rule="evenodd"/></g></svg>