<svg width="1536" height="1536" xmlns="http://www.w3.org/2000/svg" xmlns:xlink="http://www.w3.org/1999/xlink" overflow="hidden"><g><rect x="0" y="0" width="1536" height="1536" fill="#322454"/><path d="M531.05 675.338 307.45 563.481 307.45 107.663 531.05 219.52 531.05 675.338ZM251.55 563.481 83.85 647.373 83.85 191.555 251.55 107.663 251.55 563.481ZM1118 139.821 832.91 9.08861C827.848 34.6575 877.543 121.211 867.264 113.573 868.977 114.137 978.521 165.561 1034.15 191.555L1034.15 647.373 866.45 563.481C872.972 432.514 867.416 118.485 866.494 111.317 868.068 114.834 824.991 104.4 806.358 105.565L810.55 563.481 586.95 675.338 586.95 219.52 809.152 106.963C866.683 109.527 864.264 113.972 834.451 8.17467 832.751 9.67256 650.817 95.9391 559 139.821L279.5 0 0 139.821 0 783 279.5 643.179 559 783 838.5 643.179 1118 783 1118 139.821Z" fill="#F1EDE8" fill-rule="evenodd" transform="matrix(-1 0 0 1 1327 116)"/><path d="M426 230 493 124 560 230Z" fill="#F1EDE8" fill-rule="evenodd"/><g><g><g><path d="M708 1360C703 1360 697 1359 693 1355 685 1348 684 1335 691 1327L730 1282C737 1274 750 1273 758 1280 766 1287 767 1300 760 1308L721 1353C718 1357 713 1359 708 1360Z" fill="#F1EDE8"/><path d="M647 1337C640 1338 634 1336 628 1331 618 1322 617 1306 626 1296L672 1243C681 1233 697 1232 707 1241 717 1250 718 1266 709 1276L663 1329C659 1334 653 1337 647 1337Z" fill="#F1EDE8"/><path d="M584 1300C576 1301 568 1298 562 1293 550 1282 548 1263 559 1251L605 1198C616 1186 635 1184 647 1195 659 1206 661 1225 650 1237L604 1290C599 1296 591 1300 584 1300Z" fill="#F1EDE8"/><path d="M511 1263C503 1264 495 1261 489 1256 477 1245 475 1226 486 1214L539 1154C550 1142 569 1140 581 1151 593 1162 595 1181 584 1193L531 1253C525 1259 518 1262 511 1263Z" fill="#F1EDE8"/><path d="M305 1043 382 1090C391 1096 404 1093 409 1083L502 929C508 920 505 907 495 902L419 855 305 1043Z" fill="#F1EDE8"/><path d="M953 1174 792 1036 781 1026 712 1105C702 1117 688 1124 672 1125 670 1125 668 1125 667 1125 652 1125 638 1120 628 1110 603 1088 601 1050 622 1025L681 957C635 951 576 975 515 945L428 1089 496 1168 522 1138C531 1127 545 1121 560 1121L560 1121C572 1121 584 1125 593 1133 604 1142 609 1155 610 1169 615 1167 621 1166 627 1166 639 1166 651 1170 660 1178 671 1188 677 1201 677 1215 681 1214 686 1213 690 1213L690 1213C701 1213 711 1217 720 1224 729 1232 734 1243 735 1255 738 1254 742 1253 746 1253L746 1253C756 1253 765 1256 772 1263 780 1270 785 1280 786 1290 787 1301 783 1311 776 1319L742 1358 756 1369C763 1373 771 1376 780 1375 802 1373 818 1354 816 1332 816 1332 816 1331 816 1331 819 1332 823 1332 826 1332 848 1330 864 1311 862 1289 862 1289 862 1288 862 1288 865 1289 869 1289 872 1289 894 1287 910 1268 908 1246 908 1244 907 1242 907 1240 913 1243 920 1245 928 1244 950 1242 966 1223 964 1201 965 1190 960 1181 953 1174Z" fill="#F1EDE8"/><path d="M1173 1043 1096 1090C1087 1096 1074 1093 1069 1083L976 929C970 920 973 907 983 902L1060 855 1173 1043Z" fill="#F1EDE8"/><path d="M964 949C881 979 821 950 754 937 753 937 749 936 749 936 737 935 724 939 715 949L636 1039C621 1056 623 1081 640 1095 649 1102 659 1106 670 1105 680 1104 690 1100 697 1091 697 1091 779 997 779 997L966 1158 966 1158 966 1158C971 1163 973 1165 977 1171L1049 1088 964 949Z" fill="#F1EDE8"/></g></g></g></g></svg>