<svg width="1536" height="1536" xmlns="http://www.w3.org/2000/svg" xmlns:xlink="http://www.w3.org/1999/xlink" overflow="hidden"><defs><clipPath id="clip0"><rect x="0" y="0" width="1536" height="1536"/></clipPath><clipPath id="clip1"><rect x="-23" y="630" width="1152" height="621"/></clipPath><clipPath id="clip2"><rect x="-23" y="630" width="1152" height="621"/></clipPath></defs><g clip-path="url(#clip0)"><rect x="0" y="0" width="1536" height="1536" fill="#4C7976"/><path d="M498.224 257.5 554.776 257.5C578.924 257.5 598.5 276.532 598.5 300.01L598.5 304.723 601.963 305.686C686.611 334.038 751.379 409.137 769.088 502.06L770.705 513.5 773.357 513.5C796.08 513.5 814.5 531.409 814.5 553.5 814.5 575.591 796.08 593.5 773.357 593.5L279.643 593.5C256.92 593.5 238.5 575.591 238.5 553.5 238.5 531.409 256.92 513.5 279.643 513.5L283.42 513.5 285.66 498.894C302.778 414.52 358.718 345.435 432.704 313.171L454.5 304.965 454.5 300.01C454.5 276.532 474.076 257.5 498.224 257.5Z" stroke="#4C7976" stroke-width="33.3333" stroke-miterlimit="8" fill="#F1EDE8" fill-rule="evenodd"/><path d="M0 0 0.000104987 120" stroke="#4C7976" stroke-width="33.3333" stroke-linecap="round" stroke-miterlimit="8" fill="#F1EDE8" fill-rule="evenodd" transform="matrix(1 0 0 -1 453.5 431.5)"/><path d="M0 0 0.000104987 120" stroke="#4C7976" stroke-width="33.3333" stroke-linecap="round" stroke-miterlimit="8" fill="#F1EDE8" fill-rule="evenodd" transform="matrix(1 0 0 -1 597.5 431.5)"/><g clip-path="url(#clip1)"><g clip-path="url(#clip2)"><g><path d="M1472.88 289.315C1472.88 405.522 1378.67 499.726 1262.47 499.726 1146.26 499.726 1052.05 405.522 1052.05 289.315 1052.05 173.108 1146.26 78.9041 1262.47 78.9041 1378.67 78.9041 1472.88 173.108 1472.88 289.315Z" fill="#F1EDE8" transform="matrix(1 0 0 1.00072 -730.789 439.736)"/><path d="M1835.84 1372.93 1688.55 746.959C1683.29 725.918 1672.77 704.877 1656.99 689.096 1593.86 636.493 1520.22 599.671 1436.05 573.37 1378.19 562.849 1320.33 552.329 1262.47 552.329 1204.6 552.329 1146.74 562.849 1088.88 578.63 1004.71 599.671 931.069 641.753 867.945 694.356 852.164 710.137 841.644 731.178 836.384 752.219L689.096 1378.19C689.096 1383.45 683.836 1393.97 683.836 1404.49 683.836 1462.36 731.178 1509.7 789.041 1509.7 836.384 1509.7 878.466 1472.88 888.986 1430.79L999.452 973.151 999.452 2446.03 1209.86 2446.03 1209.86 1499.18 1315.07 1499.18 1315.07 2446.03 1525.48 2446.03 1525.48 967.89 1635.95 1425.53C1646.47 1467.62 1688.55 1504.44 1735.89 1504.44 1793.75 1504.44 1841.1 1457.1 1841.1 1399.23 1841.1 1388.71 1835.84 1378.19 1835.84 1372.93Z" fill="#F1EDE8" transform="matrix(1 0 0 1.00072 -730.789 439.736)"/></g></g></g><path d="M269.325 341.55 155.925 284.979 155.925 54.4501 269.325 111.022 269.325 341.55ZM127.575 284.979 42.525 327.407 42.525 96.8786 127.575 54.4501 127.575 284.979ZM567 70.7143 422.415 4.59654C419.848 17.5279 445.051 61.3022 439.838 57.4393 440.706 57.7242 496.263 83.7322 524.475 96.8786L524.475 327.407 439.425 284.979C442.732 218.743 439.915 59.9237 439.447 56.2984 440.246 58.0769 418.399 52.8 408.949 53.3893L411.075 284.979 297.675 341.55 297.675 111.022 410.366 54.0964C439.543 55.3929 438.316 57.6412 423.196 4.13432 422.334 4.89187 330.065 48.5209 283.5 70.7143L141.75 0 0 70.7143 0 396 141.75 325.286 283.5 396 425.25 325.286 567 396 567 70.7143Z" fill="#F1EDE8" fill-rule="evenodd" transform="matrix(-1 0 0 1 1397 570)"/><path d="M940 628 974 574 1008 628Z" fill="#F1EDE8" fill-rule="evenodd"/></g></svg>